<svg width="51" height="51" viewBox="0 0 51 51" fill="none" xmlns="http://www.w3.org/2000/svg">
<g clip-path="url(#clip0_3187_637)">
<path d="M25.5 0C11.4387 0 0 11.4387 0 25.5C0 39.5613 11.4387 51 25.5 51C39.5613 51 51 39.5613 51 25.5C51 11.4387 39.5613 0 25.5 0Z" fill="#2196F3"/>
<path d="M36.6562 27.6247H27.6249V36.6561C27.6249 37.8292 26.6731 38.781 25.5 38.781C24.3269 38.781 23.3751 37.8292 23.3751 36.6561V27.6247H14.3437C13.1706 27.6247 12.2189 26.673 12.2189 25.4999C12.2189 24.3268 13.1706 23.375 14.3437 23.375H23.3751V14.3436C23.3751 13.1705 24.3269 12.2188 25.5 12.2188C26.6731 12.2188 27.6249 13.1705 27.6249 14.3436V23.375H36.6562C37.8293 23.375 38.7811 24.3268 38.7811 25.4999C38.7811 26.673 37.8293 27.6247 36.6562 27.6247Z" fill="#FAFAFA"/>
</g>
<defs>
<clipPath id="clip0_3187_637">
<rect width="51" height="51" fill="white"/>
</clipPath>
</defs>
</svg>
