<svg width="41" height="41" viewBox="0 0 41 41" fill="none" xmlns="http://www.w3.org/2000/svg">
<path fill-rule="evenodd" clip-rule="evenodd" d="M13.6773 1.13831C13.6774 0.836698 13.7972 0.547449 14.0104 0.334125C14.2236 0.1208 14.5128 0.000852872 14.8144 0.000640625L26.1848 0C26.4865 0.0006994 26.7756 0.120979 26.9887 0.334475C27.2019 0.547971 27.3217 0.837266 27.3219 1.13895V3.95105H13.6773V1.13831ZM32.3724 39.371C32.3434 39.8145 32.1461 40.23 31.8207 40.5327C31.4953 40.8353 31.0666 41.0022 30.6223 40.999H10.2463C9.80207 40.9978 9.37474 40.8286 9.05013 40.5254C8.72551 40.2221 8.52765 39.8073 8.49627 39.3642L6.75265 13.8578H34.2334L32.3728 39.3707L32.3724 39.371ZM36.9023 11.5477H4.09766V8.90517C4.09814 8.2043 4.37674 7.53228 4.87227 7.03664C5.3678 6.541 6.03977 6.26227 6.74063 6.26163L34.259 6.26075C34.9598 6.26183 35.6316 6.54081 36.127 7.0365C36.6223 7.53219 36.9009 8.20413 36.9016 8.90493V11.5475L36.9023 11.5477ZM15.2179 34.9186C15.2179 35.0703 15.2478 35.2205 15.3059 35.3606C15.3639 35.5007 15.449 35.628 15.5562 35.7353C15.6634 35.8425 15.7908 35.9276 15.9309 35.9856C16.071 36.0436 16.2212 36.0735 16.3728 36.0735C16.5245 36.0735 16.6747 36.0436 16.8148 35.9856C16.9549 35.9276 17.0822 35.8425 17.1895 35.7353C17.2967 35.628 17.3818 35.5007 17.4398 35.3606C17.4978 35.2205 17.5277 35.0703 17.5277 34.9186V18.7231C17.5253 18.4185 17.4026 18.1272 17.1864 17.9127C16.9702 17.6981 16.678 17.5777 16.3734 17.5775C16.0688 17.5774 15.7765 17.6977 15.5602 17.9121C15.3439 18.1265 15.221 18.4177 15.2183 18.7223V34.9186H15.2179ZM23.458 34.9186C23.458 35.225 23.5797 35.5188 23.7963 35.7354C24.0129 35.952 24.3067 36.0737 24.613 36.0737C24.9194 36.0737 25.2132 35.952 25.4298 35.7354C25.6464 35.5188 25.7681 35.225 25.7681 34.9186V18.7231C25.7656 18.4184 25.643 18.1271 25.4267 17.9125C25.2105 17.698 24.9183 17.5775 24.6136 17.5774C24.309 17.5773 24.0167 17.6975 23.8003 17.912C23.5839 18.1264 23.461 18.4176 23.4584 18.7223L23.458 34.9186Z" fill="#FC0005"/>
</svg>
